# xmcd CD database file
#
# Track frame offsets:
#	150
#	18495
#	38370
#	56740
#
# Disc length: 1022 seconds
#
# Revision: 0
# Processed by: cddbd v1.5PL3 Copyright (c) Steve Scherf et al.
# Submitted via: CDex 1.40Release
#
DISCID=2703fc04
DTITLE=岩男潤子 - モジャ公 - 恋人が宇宙人なら
DYEAR=1995
DGENRE=Anime
TTITLE0=恋人が宇宙人なら
TTITLE1=STARSHIP 1996
TTITLE2=恋人が宇宙人なら (Original Karaoke)
TTITLE3=STARSHIP 1996 (Original Karaoke)
EXTD=YEAR: 1995
EXTT0=
EXTT1=
EXTT2=
EXTT3=
PLAYORDER=
